<svg width="21" height="21" viewBox="0 0 21 21" fill="none" xmlns="http://www.w3.org/2000/svg">
<path d="M19.0825 7.20064C19.0511 8.28865 18.6037 9.32322 17.8325 10.0913L15.1176 12.8077C14.7222 13.2052 14.2519 13.5204 13.7339 13.735C13.2158 13.9496 12.6604 14.0592 12.0997 14.0577H12.0958C11.5255 14.0573 10.9611 13.9426 10.4358 13.7204C9.91062 13.4982 9.43526 13.173 9.03784 12.764C8.64042 12.355 8.329 11.8705 8.12197 11.3391C7.91494 10.8077 7.8165 10.2402 7.83248 9.67017C7.83714 9.50441 7.90746 9.34729 8.02796 9.23338C8.14847 9.11947 8.30929 9.05809 8.47505 9.06275C8.64081 9.06741 8.79793 9.13773 8.91185 9.25824C9.02576 9.37875 9.08714 9.53957 9.08248 9.70533C9.0711 10.1084 9.14062 10.5097 9.28695 10.8854C9.43328 11.2611 9.65344 11.6037 9.93442 11.8929C10.2154 12.1822 10.5515 12.4121 10.9229 12.5692C11.2942 12.7263 11.6933 12.8074 12.0965 12.8077C12.4929 12.8087 12.8856 12.7311 13.2518 12.5795C13.618 12.4278 13.9505 12.205 14.2301 11.9241L16.945 9.20924C17.5051 8.64206 17.8181 7.8763 17.8156 7.07916C17.8131 6.28203 17.4953 5.51825 16.9317 4.95458C16.368 4.39092 15.6042 4.07315 14.8071 4.07065C14.0099 4.06816 13.2442 4.38114 12.677 4.94127L11.8176 5.80064C11.6995 5.91291 11.5421 5.97457 11.3791 5.97248C11.2162 5.97039 11.0605 5.90472 10.9452 5.78947C10.83 5.67422 10.7643 5.51851 10.7622 5.35553C10.7601 5.19256 10.8218 5.03521 10.934 4.91705L11.7934 4.05767C12.1899 3.66106 12.6606 3.34643 13.1787 3.13178C13.6968 2.91712 14.2521 2.80664 14.8129 2.80664C15.3738 2.80664 15.9291 2.91712 16.4472 3.13178C16.9653 3.34643 17.436 3.66106 17.8325 4.05767C18.2431 4.46936 18.5657 4.96031 18.7806 5.50063C18.9955 6.04096 19.0982 6.61936 19.0825 7.20064ZM8.8481 14.8124L7.98873 15.6717C7.70843 15.9539 7.37485 16.1775 7.00736 16.3296C6.63987 16.4817 6.24582 16.5592 5.8481 16.5577C5.25146 16.5572 4.66835 16.3799 4.17245 16.0481C3.67654 15.7164 3.2901 15.2451 3.06194 14.6938C2.83378 14.1425 2.77415 13.536 2.89058 12.9508C3.00701 12.3656 3.29427 11.8281 3.71607 11.4061L6.42623 8.69127C6.85309 8.26215 7.39912 7.9713 7.99341 7.85649C8.58769 7.74168 9.20277 7.80822 9.75875 8.04746C10.3147 8.2867 10.7859 8.68759 11.1112 9.19807C11.4364 9.70855 11.6006 10.305 11.5825 10.91C11.5778 11.0758 11.6392 11.2366 11.7531 11.3571C11.867 11.4776 12.0241 11.5479 12.1899 11.5526C12.3557 11.5573 12.5165 11.4959 12.637 11.382C12.7575 11.2681 12.8278 11.1109 12.8325 10.9452C12.8475 10.3648 12.7444 9.78744 12.5295 9.24811C12.3147 8.70878 11.9925 8.21872 11.5825 7.80767C10.7818 7.00738 9.69615 6.55781 8.56412 6.55781C7.43209 6.55781 6.3464 7.00738 5.54576 7.80767L2.83248 10.5225C2.23578 11.119 1.82929 11.8789 1.66436 12.7063C1.49943 13.5337 1.58348 14.3915 1.90588 15.1711C2.22827 15.9508 2.77455 16.6174 3.47567 17.0866C4.1768 17.5559 5.00129 17.8068 5.84498 17.8077C6.40581 17.8093 6.9614 17.6996 7.47957 17.4851C7.99774 17.2705 8.46821 16.9553 8.86373 16.5577L9.7231 15.6983C9.82425 15.5792 9.87709 15.4265 9.87121 15.2703C9.86532 15.1141 9.80115 14.9658 9.69133 14.8546C9.58151 14.7434 9.43401 14.6774 9.27793 14.6696C9.12184 14.6618 8.96849 14.7127 8.8481 14.8124Z" fill="#FAFFA7"/>
</svg>
