<svg preserveAspectRatio="none" width="100%" height="100%" overflow="visible" style="display: block;" viewBox="0 0 162 56" fill="none" xmlns="http://www.w3.org/2000/svg">
<g id="Zoho Books 1">
<path id="Vector" d="M71.9958 26.6378H80.5291C84.4849 26.6378 87.7249 27.9054 87.7249 32.4081C87.7249 36.9108 86.5193 36.3622 84.24 37.0243C87.1786 37.6108 88.6291 39.2568 88.6291 42.2649C88.6291 46.9 85.163 48.3568 81.113 48.3568H72.0147V26.6189L71.9958 26.6378ZM80.0016 35.7568C82.3563 35.7568 83.6749 35.0568 83.6749 32.5027C83.6749 29.9486 81.9795 29.5892 79.9263 29.5892H76.0647V35.7568H79.9828H80.0016ZM80.5856 45.4243C82.9779 45.4243 84.5037 44.4973 84.5037 42C84.5037 39.5027 82.62 38.5568 80.303 38.5568H76.0835V45.4243H80.5856ZM99.046 32.1243C103.85 32.1243 107.542 35.5108 107.542 40.373C107.542 45.2351 103.661 48.6595 98.8765 48.6595C94.0919 48.6595 90.1926 45.3108 90.1926 40.4486C90.1926 35.5865 94.2802 32.1243 99.046 32.1243ZM103.473 40.4108C103.473 37.4784 102.003 35.0568 98.8954 35.0568C95.7872 35.0568 94.4309 37.6108 94.4309 40.5243C94.4309 43.4378 95.9191 45.7459 98.9895 45.7459C102.06 45.7459 103.492 43.1919 103.492 40.4108H103.473ZM117.601 32.1243C122.404 32.1243 126.096 35.5108 126.096 40.373C126.096 45.2351 122.216 48.6595 117.431 48.6595C112.647 48.6595 108.747 45.3108 108.747 40.4486C108.747 35.4541 112.835 32.1243 117.601 32.1243ZM122.046 40.4108C122.046 37.4784 120.577 35.0568 117.469 35.0568C114.361 35.0568 113.004 37.6108 113.004 40.5243C113.004 43.4378 114.493 45.7459 117.563 45.7459C120.633 45.7459 122.065 43.1919 122.065 40.4108H122.046ZM128.865 25.2757H132.652V39.4081L138.397 32.4838H142.541L136.268 39.7676L143.031 48.3757H138.661L132.652 40.6189V48.3757H128.865V25.2757ZM146.893 43.627C147.477 45.1784 149.097 45.9351 150.811 45.9351C152.525 45.9351 153.561 45.5568 153.561 44.0432C153.561 42.5297 151.847 42.0757 149.888 41.6595C147.345 41.1297 144.5 40.5054 144.5 36.9297C144.5 33.3541 147.533 32.1054 150.396 32.1054C153.26 32.1054 155.784 33.0513 156.82 35.5676L154.013 36.7784C153.391 35.3595 151.847 34.8297 150.547 34.8297C149.247 34.8297 148.079 35.3405 148.079 36.627C148.079 37.9135 149.624 38.3865 151.545 38.7649C154.126 39.2757 157.215 39.8622 157.215 43.5703C157.215 47.2784 154.088 48.6405 150.792 48.6405C147.495 48.6405 144.99 47.6946 144.01 44.8378L146.93 43.6081L146.893 43.627ZM72.0147 19.7514L78.9844 9.64865H72.7305V7.66216H82.2621V8.64595L75.4619 18.7486H82.0549V20.7351H72.0147V19.7514ZM88.2335 10.973C91.1344 10.973 93.3572 13.0162 93.3572 15.9486C93.3572 18.8811 91.0214 20.9432 88.1393 20.9432C85.2572 20.9432 82.9026 18.9189 82.9026 16.0054C82.9026 13.0919 85.3702 10.9919 88.2335 10.9919V10.973ZM90.8895 15.9486C90.8895 14.1892 90.0042 12.7135 88.1393 12.7135C86.2744 12.7135 85.4456 14.2459 85.4456 16.0054C85.4456 17.7649 86.3498 19.1459 88.1958 19.1459C90.0984 19.1459 90.9084 17.6135 90.9084 15.9297L90.8895 15.9486ZM95.0149 6.82973H97.2942V12.6946C97.9158 11.5027 99.1591 10.973 100.478 10.973C102.757 10.973 103.906 12.5811 103.906 14.7568V20.7541H101.608V14.9838C101.608 13.6027 100.892 12.8649 99.5735 12.8649C98.2549 12.8649 97.313 13.773 97.313 15.1351V20.7541H95.0337V6.82973H95.0149ZM110.706 10.973C113.607 10.973 115.83 13.0162 115.83 15.9486C115.83 18.8811 113.494 20.9432 110.612 20.9432C107.73 20.9432 105.375 18.9189 105.375 16.0054C105.375 12.9973 107.843 10.9919 110.706 10.9919V10.973ZM113.381 15.9486C113.381 14.1892 112.496 12.7135 110.612 12.7135C108.728 12.7135 107.918 14.2459 107.918 16.0054C107.918 17.7649 108.823 19.1459 110.669 19.1459C112.571 19.1459 113.381 17.6135 113.381 15.9297V15.9486Z" fill="var(--fill-0, black)"/>
<path id="Vector_2" d="M44.1356 55.4324H6.81907C5.93372 55.4324 5.21791 54.7135 5.21791 53.8243V40.2027C5.21791 37.2324 7.10163 34.5838 9.90837 33.6189L51.2749 19.3541C54.496 18.2378 56.6623 15.1919 56.6623 11.7865C56.6623 8.38108 53.0833 3.78378 48.6942 3.78378H8.42023V30.3081C8.42023 31.1973 7.70442 31.9162 6.81907 31.9162C5.93372 31.9162 5.21791 31.1973 5.21791 30.3081V2.17568C5.21791 1.28649 5.93372 0.567568 6.81907 0.567568H48.6753C54.8351 0.567568 59.8458 5.6 59.8458 11.7865C59.8458 17.973 56.813 20.8486 52.2921 22.4L10.9444 36.6649C9.43744 37.1757 8.42023 38.6135 8.42023 40.2216V52.2351H44.1356C47.4698 52.2351 50.6156 50.9297 52.9891 48.5459C55.3437 46.1811 56.6623 43.0216 56.6623 39.673C56.6623 36.3243 56.003 34.9811 54.7409 32.9757C53.4977 30.9892 51.727 29.4 49.6172 28.3784C48.826 28 48.487 27.0351 48.8826 26.2405C49.2593 25.4459 50.22 25.1054 51.0112 25.5027C53.6484 26.7892 55.8712 28.7946 57.4346 31.2919C59.017 33.8081 59.8646 36.7216 59.8646 39.7108C59.8646 43.9297 58.2258 47.8838 55.2684 50.873C52.3109 53.8432 48.3551 55.4892 44.1733 55.4892L44.1356 55.4324Z" fill="var(--fill-0, #226DB4)"/>
<path id="Vector_3" d="M23.2263 23.0622C19.7037 23.0622 16.8216 20.1865 16.8216 16.6297C16.8216 13.073 19.6849 10.1973 23.2263 10.1973C26.7677 10.1973 29.6309 13.073 29.6309 16.6297C29.6309 20.1865 26.7677 23.0622 23.2263 23.0622ZM23.2263 13.4135C21.4556 13.4135 20.024 14.8514 20.024 16.6297C20.024 18.4081 21.4556 19.8459 23.2263 19.8459C24.997 19.8459 26.4286 18.4081 26.4286 16.6297C26.4286 14.8514 24.997 13.4135 23.2263 13.4135ZM39.2756 45.7649C35.753 45.7649 32.8709 42.8892 32.8709 39.3324C32.8709 35.7757 35.7342 32.9 39.2756 32.9C42.817 32.9 45.6802 35.7757 45.6802 39.3324C45.6802 42.8892 42.817 45.7649 39.2756 45.7649ZM39.2756 36.1162C37.5049 36.1162 36.0733 37.5541 36.0733 39.3324C36.0733 41.1108 37.5049 42.5486 39.2756 42.5486C41.0463 42.5486 42.4779 41.1108 42.4779 39.3324C42.4779 37.5541 41.0463 36.1162 39.2756 36.1162Z" fill="var(--fill-0, #226DB4)"/>
</g>
</svg>
