<svg preserveAspectRatio="none" width="100%" height="100%" overflow="visible" style="display: block;" viewBox="0 0 142.882 100" fill="none" xmlns="http://www.w3.org/2000/svg">
<g id="Group">
<g id="Mask group">
<path id="Vector" fill-rule="evenodd" clip-rule="evenodd" d="M59.4545 10.8897C64.0642 6.09254 70.4801 3.12185 77.568 3.12185C87.0186 3.12185 95.209 8.37042 99.6193 16.1908C103.534 14.4413 107.774 13.5381 112.063 13.5403C129.073 13.5403 142.882 27.449 142.882 44.6118C142.882 61.7746 129.073 75.6834 112.063 75.6834C109.983 75.6834 107.957 75.4745 105.972 75.0798C102.113 81.9554 94.7365 86.6266 86.336 86.6266C82.9159 86.6334 79.5395 85.8578 76.4654 84.3593C72.554 93.5443 63.4447 100 52.8391 100C41.7609 100 32.3629 93.0194 28.7402 83.2046C27.1278 83.5447 25.4843 83.7157 23.8364 83.7147C10.6581 83.7147 0 72.9027 0 59.6238C0 50.7012 4.79878 42.9333 11.9182 38.7345C10.4078 35.2562 9.63036 31.5043 9.63431 27.7125C9.63431 12.3866 22.0775 0 37.4084 0C46.3864 0 54.4194 4.27759 59.4597 10.917" fill="var(--fill-0, #00A1E0)"/>
</g>
<path id="Vector_2" fill-rule="evenodd" clip-rule="evenodd" d="M20.8116 51.8288C20.7218 52.0629 20.8436 52.1117 20.8725 52.1531C21.1407 52.3473 21.4132 52.488 21.6863 52.646C23.1458 53.4175 24.5214 53.6432 25.96 53.6432C28.8897 53.6432 30.7115 52.0844 30.7115 49.5756V49.5262C30.7115 47.2064 28.6534 46.3613 26.7318 45.7578L26.4803 45.6764C25.026 45.2051 23.7711 44.7946 23.7711 43.8394V43.7906C23.7711 42.9718 24.5062 42.3682 25.6403 42.3682C26.9003 42.3682 28.4019 42.7876 29.3627 43.3182C29.3627 43.3182 29.6473 43.5019 29.7507 43.2274C29.8069 43.0789 30.2968 41.7683 30.3493 41.6213C30.4049 41.4676 30.3073 41.3516 30.207 41.2917C29.1044 40.6199 27.5818 40.1633 26.0067 40.1633L25.7143 40.1643C23.0314 40.1643 21.157 41.7862 21.157 44.106V44.1559C21.157 46.6017 23.2256 47.3995 25.1578 47.9506L25.4686 48.0472C26.8757 48.4797 28.0937 48.8555 28.0937 49.8422V49.8915C28.0937 50.7995 27.3009 51.4766 26.0304 51.4766C25.5363 51.4766 23.9617 51.4682 22.2554 50.3901C22.0491 50.2699 21.9314 50.1833 21.7724 50.0862C21.6884 50.0353 21.4783 49.9435 21.387 50.2185L20.8095 51.8246M63.7044 51.8246C63.6147 52.0587 63.7365 52.1075 63.7664 52.1489C64.0336 52.3431 64.3072 52.4838 64.5802 52.6418C66.0398 53.4133 67.4154 53.639 68.8539 53.639C71.7836 53.639 73.6055 52.0802 73.6055 49.5714V49.522C73.6055 47.2022 71.5526 46.3571 69.6257 45.7536L69.3743 45.6722C67.9199 45.2009 66.6651 44.7904 66.6651 43.8352V43.7864C66.6651 42.9676 67.4001 42.364 68.5342 42.364C69.7943 42.364 71.2906 42.7834 72.2567 43.314C72.2567 43.314 72.5412 43.4977 72.6452 43.2232C72.7008 43.0747 73.1912 41.7641 73.2385 41.6172C73.2947 41.4634 73.1965 41.3474 73.0967 41.2875C71.9942 40.6157 70.4716 40.1591 68.8965 40.1591L68.6035 40.1601C65.9206 40.1601 64.0462 41.782 64.0462 44.1018V44.1517C64.0462 46.5975 66.1149 47.3953 68.047 47.9464L68.3573 48.043C69.7696 48.4755 70.9824 48.8513 70.9824 49.838V49.8873C70.9824 50.7953 70.1896 51.4724 68.919 51.4724C68.4239 51.4724 66.8452 51.464 65.1441 50.3859C64.9377 50.2658 64.817 50.1828 64.6605 50.082C64.6075 50.0485 64.3602 49.9519 64.2757 50.2143L63.6981 51.8204M92.9949 46.9077C92.9949 48.3248 92.7302 49.4428 92.2126 50.2353C91.6959 51.0173 90.9157 51.4005 89.8289 51.4005C88.7421 51.4005 87.9651 51.0205 87.4558 50.2406C86.9428 49.4533 86.684 48.3301 86.684 46.913C86.684 45.4958 86.9444 44.3831 87.4558 43.6011C87.964 42.8243 88.7369 42.4517 89.8289 42.4517C90.921 42.4517 91.698 42.828 92.2126 43.6011C92.7334 44.3831 92.9949 45.4958 92.9949 46.913M95.4415 44.2834C95.2005 43.4699 94.8272 42.7561 94.3284 42.1578C93.8291 41.5594 93.1996 41.0765 92.4488 40.7301C91.7033 40.3811 90.8212 40.2053 89.8237 40.2053C88.8261 40.2053 87.9493 40.3822 87.1985 40.7301C86.453 41.0786 85.8177 41.5594 85.3189 42.1578C84.8212 42.7561 84.4474 43.4699 84.2058 44.2834C83.9669 45.0917 83.8457 45.9735 83.8457 46.913C83.8457 47.8525 83.9669 48.7342 84.2058 49.5425C84.4458 50.356 84.8201 51.0698 85.3189 51.6682C85.8182 52.2665 86.453 52.7441 87.1985 53.0853C87.9493 53.4254 88.8314 53.5986 89.8237 53.5986C90.816 53.5986 91.698 53.4254 92.4436 53.0853C93.1891 52.7452 93.8244 52.2665 94.3232 51.6682C94.8214 51.0698 95.1947 50.356 95.4362 49.5425C95.6746 48.7342 95.7959 47.8525 95.7959 46.913C95.7959 45.9787 95.6746 45.0917 95.4362 44.2834M115.545 51.0016C115.465 50.7638 115.233 50.8536 115.233 50.8536C114.877 50.9895 114.497 51.1155 114.093 51.1785C113.686 51.2425 113.232 51.2745 112.754 51.2745C111.573 51.2745 110.628 50.9223 109.956 50.2248C109.279 49.5268 108.901 48.4036 108.906 46.8815C108.91 45.4958 109.245 44.4566 109.846 43.6588C110.439 42.8716 111.353 42.4622 112.56 42.4622C113.568 42.4622 114.34 42.5792 115.149 42.8322C115.149 42.8322 115.34 42.9156 115.432 42.6632C115.647 42.0701 115.805 41.645 116.036 40.9941C116.101 40.8078 115.941 40.7291 115.883 40.7065C115.566 40.5827 114.817 40.3795 114.25 40.294C113.72 40.2132 113.106 40.1712 112.413 40.1712C111.384 40.1712 110.47 40.347 109.688 40.6955C108.905 41.0435 108.244 41.5248 107.719 42.1231C107.194 42.7215 106.795 43.4353 106.527 44.2488C106.262 45.0571 106.128 45.9441 106.128 46.8836C106.128 48.9095 106.674 50.5523 107.756 51.7542C108.837 52.9614 110.465 53.5702 112.586 53.5702C113.841 53.5702 115.127 53.3167 116.051 52.9509C116.051 52.9509 116.227 52.8659 116.151 52.6601L115.547 51.0016M119.826 45.5431C119.943 44.7558 120.159 44.0997 120.498 43.5906C121.006 42.8138 121.779 42.3887 122.866 42.3887C123.953 42.3887 124.672 42.8159 125.187 43.5906C125.528 44.1023 125.677 44.782 125.733 45.5431L119.8 45.542L119.826 45.5431ZM128.069 43.8111C127.861 43.029 127.344 42.2365 127.008 41.8743C126.473 41.3022 125.953 40.8981 125.433 40.6777C124.683 40.3587 123.876 40.195 123.06 40.1964C122.026 40.1964 121.086 40.3711 120.325 40.7265C119.564 41.0844 118.923 41.5715 118.419 42.1803C117.915 42.7892 117.537 43.5082 117.295 44.3322C117.054 45.1458 116.932 46.038 116.932 46.9723C116.932 47.9275 117.059 48.8145 117.307 49.6175C117.559 50.4258 117.964 51.1344 118.51 51.7222C119.056 52.3153 119.754 52.7772 120.594 53.1026C121.429 53.4254 122.442 53.5928 123.603 53.5891C125.997 53.5813 127.257 53.0485 127.771 52.7599C127.863 52.7084 127.95 52.6197 127.842 52.3641L127.301 50.8473C127.218 50.6211 126.989 50.703 126.989 50.703C126.396 50.9244 125.556 51.3223 123.587 51.317C122.3 51.3149 121.35 50.9355 120.752 50.3408C120.143 49.732 119.838 48.845 119.791 47.5853L128.086 47.5916C128.086 47.5916 128.305 47.5895 128.327 47.3764C128.336 47.2882 128.611 45.6759 128.08 43.8126L128.069 43.8111ZM53.5147 45.5431C53.6317 44.7558 53.8481 44.0997 54.1867 43.5906C54.6949 42.8138 55.4678 42.3887 56.5546 42.3887C57.6414 42.3887 58.3607 42.8159 58.8752 43.5906C59.216 44.1023 59.3651 44.782 59.4212 45.5431L53.4884 45.542L53.5147 45.5431ZM61.7576 43.8111C61.5497 43.029 61.0331 42.2365 60.6971 41.8743C60.1615 41.3022 59.6418 40.8981 59.122 40.6777C58.3716 40.3587 57.5643 40.195 56.7488 40.1964C55.7145 40.1964 54.7747 40.3711 54.0134 40.7265C53.2521 41.0844 52.6116 41.5715 52.1076 42.1803C51.6051 42.7892 51.2255 43.5082 50.984 44.3322C50.743 45.1458 50.6217 46.038 50.6217 46.9723C50.6217 47.9275 50.7472 48.8145 50.9977 49.6175C51.2486 50.4258 51.6539 51.1344 52.1947 51.7222C52.7408 52.3153 53.439 52.7772 54.2791 53.1026C55.1139 53.4254 56.122 53.5928 57.2875 53.5891C59.6817 53.5813 60.9417 53.0485 61.4563 52.7599C61.5476 52.7084 61.6348 52.6197 61.5261 52.3641L60.9853 50.8473C60.9018 50.6211 60.6729 50.703 60.6729 50.703C60.0796 50.9244 59.2396 51.3223 57.2707 51.317C55.9896 51.3149 55.0341 50.9355 54.4356 50.3408C53.8265 49.732 53.522 48.845 53.4748 47.5853L61.7702 47.5916C61.7702 47.5916 61.9886 47.5895 62.0112 47.3764C62.0201 47.2882 62.2953 45.6759 61.7634 43.8126L61.7576 43.8111ZM35.6111 50.9491C35.2861 50.6898 35.241 50.6263 35.1333 50.4578C34.969 50.2043 34.885 49.8438 34.885 49.3819C34.885 48.6576 35.1265 48.1327 35.6253 47.7811C35.62 47.7821 36.3393 47.1617 38.0299 47.1827C38.7824 47.1962 39.5332 47.2602 40.2771 47.3743V51.1375H40.2781C40.2781 51.1375 39.2281 51.3638 38.0415 51.4351C36.3561 51.5364 35.6106 50.9502 35.6158 50.9517L35.6111 50.9491ZM38.9083 45.1232C38.5723 45.0985 38.1365 45.0865 37.6167 45.0865C36.9079 45.0865 36.2201 45.1746 35.5796 45.3478C34.9338 45.5221 34.351 45.7919 33.8523 46.1509C33.3521 46.5076 32.9407 46.9745 32.6499 47.5155C32.3565 48.0613 32.2068 48.7017 32.2068 49.426C32.2068 50.1608 32.3344 50.7959 32.5864 51.3155C32.8334 51.8309 33.2051 52.2765 33.668 52.6119C34.1284 52.9467 34.697 53.1945 35.3533 53.3414C36.0044 53.4899 36.7394 53.565 37.548 53.565C38.3985 53.565 39.2438 53.4936 40.0628 53.3556C40.7604 53.2353 41.4554 53.1002 42.1472 52.9504C42.4234 52.8869 42.73 52.8034 42.73 52.8034C42.9348 52.7515 42.919 52.5326 42.919 52.5326L42.9143 44.9747C42.9143 43.3161 42.4712 42.0827 41.5965 41.3217C40.7249 40.5606 39.4491 40.1775 37.7952 40.1775C37.1757 40.1775 36.1729 40.2614 35.5744 40.3816C35.5744 40.3816 33.7683 40.7322 33.0227 41.3159C33.0227 41.3159 32.8589 41.4167 32.9482 41.645L33.5362 43.2195C33.6092 43.4237 33.8082 43.3539 33.8082 43.3539C33.8082 43.3539 33.8706 43.3292 33.9441 43.2857C35.535 42.4197 37.5511 42.4459 37.5511 42.4459C38.4437 42.4459 39.1367 42.627 39.5987 42.9813C40.0508 43.3282 40.2813 43.8525 40.2813 44.9547V45.3048C39.5725 45.2019 38.9162 45.1426 38.9162 45.1426L38.9083 45.1232ZM105.587 40.8561C105.599 40.8284 105.605 40.7986 105.606 40.7685C105.606 40.7384 105.6 40.7085 105.588 40.6807C105.577 40.6528 105.56 40.6277 105.538 40.6066C105.516 40.5855 105.491 40.569 105.463 40.558C105.322 40.5045 104.617 40.3559 104.077 40.3223C103.037 40.2572 102.46 40.4325 101.94 40.6656C101.426 40.897 100.858 41.2692 100.543 41.6996L100.542 40.6918C100.542 40.5533 100.444 40.4415 100.304 40.4415H98.1832C98.0457 40.4415 97.9459 40.5533 97.9459 40.6918V53.026C97.946 53.0926 97.9726 53.1565 98.0197 53.2036C98.0668 53.2507 98.1307 53.2772 98.1974 53.2774H100.371C100.438 53.2772 100.501 53.2507 100.548 53.2036C100.596 53.1564 100.622 53.0926 100.622 53.026V46.8327C100.622 46.0034 100.713 45.1794 100.896 44.6597C101.075 44.1459 101.319 43.736 101.62 43.4421C101.907 43.1582 102.258 42.9476 102.644 42.828C103.006 42.7242 103.38 42.6715 103.757 42.6716C104.19 42.6716 104.665 42.7829 104.665 42.7829C104.825 42.8007 104.914 42.7031 104.968 42.5593C105.11 42.1808 105.514 41.0477 105.592 40.822" fill="var(--fill-0, #FFFFFE)"/>
<path id="Vector_3" fill-rule="evenodd" clip-rule="evenodd" d="M85.286 35.1633C85.0173 35.0821 84.744 35.0173 84.4674 34.9691C84.0955 34.907 83.7188 34.8779 83.3418 34.882C81.8439 34.882 80.6631 35.305 79.8341 36.1406C79.0108 36.9699 78.4506 38.2332 78.1697 39.8954L78.0684 40.4565H76.1882C76.1882 40.4565 75.9588 40.447 75.9105 40.6974L75.6018 42.4189C75.5803 42.5837 75.6511 42.6866 75.8716 42.6855H77.7019L75.8449 53.0478C75.6994 53.8823 75.533 54.5688 75.3487 55.089C75.1671 55.6023 74.9896 55.987 74.7712 56.2662C74.5596 56.5365 74.359 56.7355 74.013 56.8514C73.7274 56.9475 73.3987 56.9916 73.0386 56.9916C72.838 56.9916 72.5713 56.958 72.3744 56.9186C72.1775 56.8798 72.0751 56.8357 71.9276 56.7738C71.9276 56.7738 71.7129 56.6919 71.6284 56.9071C71.5596 57.0829 71.0718 58.4239 71.0141 58.5898C70.9553 58.7535 71.0377 58.8826 71.1416 58.9199C71.3853 59.007 71.5664 59.0627 71.8982 59.1409C72.3592 59.2495 72.7477 59.2563 73.1116 59.2563C73.8739 59.2563 74.5685 59.1493 75.1445 58.9414C75.7241 58.732 76.2287 58.3672 76.6749 57.8733C77.1574 57.3406 77.4609 56.7827 77.7513 56.0216C78.0384 55.2674 78.2831 54.3311 78.4789 53.2399L80.3449 42.6855H83.073C83.073 42.6855 83.3029 42.6939 83.3507 42.4446L83.6594 40.7231C83.6809 40.5583 83.6106 40.4554 83.389 40.4565H80.7413C80.7544 40.3966 80.8747 39.4655 81.1787 38.589C81.3083 38.2148 81.5525 37.913 81.7593 37.7057C81.9525 37.5082 82.1904 37.3603 82.4529 37.2743C82.7407 37.1853 83.0406 37.1421 83.3418 37.1462C83.5912 37.1462 83.8358 37.1761 84.0222 37.215C84.279 37.2695 84.3787 37.2984 84.4459 37.3184C84.7158 37.4008 84.752 37.321 84.805 37.1903L85.4382 35.452C85.5033 35.2651 85.3448 35.1864 85.286 35.1633ZM48.285 53.0698C48.285 53.2084 48.1863 53.3213 48.0477 53.3213H45.8514C45.7123 53.3213 45.6136 53.2084 45.6136 53.0698V35.399C45.6136 35.2609 45.7123 35.1491 45.8514 35.1491H48.0477C48.1863 35.1491 48.285 35.2609 48.285 35.399V53.0698Z" fill="var(--fill-0, #FFFFFE)"/>
</g>
</svg>
